<svg xmlns="http://www.w3.org/2000/svg" aria-hidden="true" style="position:absolute;width:0;height:0;overflow:hidden">
<defs>
<symbol id="icon-logo-twitter" viewBox="0 0 32 32">
<path d="M31 6.844a12.25 12.25 0 0 1-3.473.95l-.061.006a6.13 6.13 0 0 0 2.696-3.307l.013-.043a12.134 12.134 0 0 1-3.832 1.456l-.078.013A6.18 6.18 0 0 0 21.782 4h-.012.001c-3.401 0-6.154 2.712-6.154 6.056v.03c0 .479.058.945.167 1.391l-.008-.04A17.532 17.532 0 0 1 3.111 5.134l-.023-.028a5.914 5.914 0 0 0-.837 3.043c0 2.1 1.096 3.956 2.75 5.044a6.059 6.059 0 0 1-2.829-.772l.031.016v.075c0 2.938 2.125 5.381 4.938 5.937a6.142 6.142 0 0 1-1.621.212h-.01c-.406 0-.802-.041-1.185-.119l.038.006c.782 2.406 3.058 4.156 5.753 4.206a12.391 12.391 0 0 1-7.615 2.594h-.032.002a12.866 12.866 0 0 1-1.53-.094l.061.006c2.652 1.717 5.894 2.738 9.374 2.738h.05-.003c11.335 0 17.527-9.231 17.527-17.238 0-.262-.007-.525-.019-.781a12.505 12.505 0 0 0 3.043-3.095l.027-.042z"/>
</symbol>
<symbol id="icon-logo-linkedin" viewBox="0 0 32 32">
<path d="M27.761 2H4.393C3.116 2 2 2.919 2 4.181v23.42C2 28.87 3.116 30 4.393 30h23.361C29.038 30 30 28.862 30 27.601V4.181C30.008 2.919 29.038 2 27.761 2zM10.679 25.339H6.668V12.867h4.011zM8.813 10.971h-.029c-1.284 0-2.115-.956-2.115-2.152 0-1.218.853-2.151 2.166-2.151s2.116.926 2.144 2.151c-.001 1.196-.832 2.152-2.166 2.152zm16.526 14.368h-4.011V18.52c0-1.634-.584-2.75-2.035-2.75-1.109 0-1.765.75-2.057 1.481-.109.262-.139.62-.139.985v7.104h-4.011V12.868h4.011v1.736c.584-.831 1.496-2.027 3.617-2.027 2.633 0 4.625 1.736 4.625 5.478z"/>
</symbol>
<symbol id="icon-logo-facebook" viewBox="0 0 32 32">
<path d="M30 16.084c0-7.731-6.269-14-14-14s-14 6.269-14 14c0 6.988 5.119 12.779 11.813 13.831v-9.782h-3.556v-4.048h3.556v-3.084c0-3.508 2.091-5.447 5.288-5.447 1.532 0 3.134.274 3.134.274v3.446h-1.766c-1.738 0-2.282 1.079-2.282 2.188v2.625h3.883l-.62 4.048h-3.262v9.784c6.694-1.051 11.813-6.843 11.813-13.832z"/>
</symbol>
<symbol id="icon-logo-instagram" viewBox="0 0 32 32">
<path d="M21.833 4.333a5.852 5.852 0 0 1 5.834 5.833v11.667a5.852 5.852 0 0 1-5.833 5.834H10.167a5.852 5.852 0 0 1-5.834-5.833V10.167a5.852 5.852 0 0 1 5.833-5.834h11.667zm0-2.333H10.167C5.675 2 2 5.675 2 10.167v11.666C2 26.325 5.675 30 10.167 30h11.666C26.325 30 30 26.325 30 21.833V10.167C30 5.675 26.325 2 21.833 2z"/>
<path d="M23.583 10.167a1.75 1.75 0 1 1 1.75-1.75v.004c0 .964-.782 1.746-1.746 1.746h-.004zM16 11.333A4.667 4.667 0 1 1 11.333 16 4.673 4.673 0 0 1 16 11.333zM16 9a7 7 0 1 0 7 7 7 7 0 0 0-7-7z"/>
</symbol>
</defs>
</svg>